<?xml version="1.0" encoding="UTF-8"?>
<svg id="Object" xmlns="http://www.w3.org/2000/svg" viewBox="0 0 602 662.76">
  <defs>
    <style>
      .cls-1 {
        fill: #587291;
      }

      .cls-2 {
        fill: none;
      }
    </style>
  </defs>
  <rect class="cls-2" x="222.94" y="39.23" width="151.29" height="13.58" transform="translate(-.35 2.34) rotate(-.45)"/>
  <path class="cls-1" d="m601.52,92.22l-55.79.43-.24-32.22c-.04-2.52-1.06-4.97-2.85-6.72-1.79-1.77-4.28-2.77-6.77-2.76l-123.08.96h-.16s-.1-32.82-.1-32.82c-.05-5.07-2.14-10.01-5.75-13.56C403.15,1.98,398.19-.04,393.12,0l-189.77,1.48c-5.05.05-10,2.13-13.56,5.74-3.56,3.61-5.56,8.58-5.52,13.65l.1,32.82-114.58.89c-2.51.02-4.97,1.06-6.71,2.85-1.78,1.78-2.78,4.25-2.76,6.77l.24,32.23-60.55.47.48,61.26,601.52-4.7-.48-61.26ZM222.91,53.4l-.02-13.58,151.28-1.18.02,13.58-151.2,1.19h-.09Z"/>
  <path class="cls-1" d="m572.59,180.47c-3.9-4.65-9.73-7.33-15.8-7.28l-510.81,3.98c-6.06.05-11.8,2.79-15.65,7.48-3.85,4.69-5.41,10.85-4.28,16.8l85.21,444.72c1.86,9.69,10.37,16.67,20.23,16.6l344.33-2.7c9.81-.08,18.2-7.12,19.96-16.77l81.26-446.02c1.1-5.96-.56-12.17-4.46-16.81Zm-378.79,452.11c-1.41.22-2.8.29-4.17.23-9.82.02-18.47-7.07-20.05-17.05l-58.5-366.56c-1.77-11.08,5.76-21.46,16.85-23.22,1.41-.22,2.8-.3,4.17-.23,9.81-.02,18.46,7.06,20.05,17.06l58.5,366.56c1.77,11.05-5.78,21.46-16.84,23.23Zm112.16,1.45c-.2,0-.38-.02-.58-.02-.14,0-.28.02-.42.02-11.21.09-20.37-8.92-20.44-20.13l-2.91-371.18c-.07-11.21,8.94-20.36,20.12-20.44.2,0,.39.02.58.02.14,0,.28-.02.42-.02,11.23-.09,20.39,8.92,20.46,20.12l2.91,371.18c.07,11.21-8.94,20.36-20.14,20.45Zm187.84-387.82l-52.76,367.43c-1.51,10.41-10.68,17.84-20.99,17.37-.99,0-1.98-.04-2.98-.18-11.1-1.58-18.8-11.87-17.2-22.95l52.76-367.44c1.5-10.42,10.68-17.84,20.99-17.36.99,0,1.98.04,2.99.18,11.09,1.6,18.8,11.86,17.19,22.96Z"/>
</svg>